<?xml version="1.0" encoding="utf-8"?>
<!-- Generator: Adobe Illustrator 16.0.0, SVG Export Plug-In . SVG Version: 6.00 Build 0)  -->
<!DOCTYPE svg PUBLIC "-//W3C//DTD SVG 1.1//EN" "http://www.w3.org/Graphics/SVG/1.1/DTD/svg11.dtd">
<svg version="1.1" xmlns="http://www.w3.org/2000/svg" xmlns:xlink="http://www.w3.org/1999/xlink" x="0px" y="0px"
	 width="71.324px" height="103.944px" viewBox="0 0 71.324 103.944" enable-background="new 0 0 71.324 103.944"
	 xml:space="preserve">
<g id="Layer_1" display="none">
</g>
<g id="bg">
</g>
<g id="header">
</g>
<g id="list">
</g>
<g id="modal_box">
</g>
<g id="modal_box_button">
</g>
<g id="modal_box_text">
</g>
<g id="desk">
</g>
<g id="monitor">
</g>
<g id="cork_board">
</g>
<g id="post-it" display="none">
</g>
<g id="sunrise" display="none">
</g>
<g id="cap">
	<g>
		<path fill="#191970" d="M3.104,13.826c0,0-9.304,23.799,4.31,31.9c13.613,8.1,25.334,11.202,31.623,17.75
			c6.291,6.55,19.388,12.063,23.007,7.238c3.619-4.825,6.893-12.925,2.412-27.056c-4.479-14.131-4.222-16.802-4.308-19.646
			c0,0,1.507-8.143-6.506-16.932c0,0-11.632-10.469-25.334-5.945C14.607,5.658,8.103,4.365,3.104,13.826z"/>
		<path fill="#0D0D3D" d="M11.331,6.062c0,0-0.385,2.181,1.426,4.938c1.808,2.757,3.704,11.201-2.414,14.563
			c0,0-4.22,3.102-4.396-5.515c0,0-0.09-2.921-1.161-8.928C4.786,11.12,8.526,6.379,11.331,6.062z"/>
		<path fill="#6262BD" d="M46.262,3.958c-0.287,0.713-1.648,0.836-3.043,0.277c-1.395-0.56-2.294-1.592-2.008-2.304
			c0.287-0.712,1.648-0.836,3.041-0.275C45.65,2.216,46.547,3.246,46.262,3.958z"/>
		<path fill="#474788" d="M61.215,71.696l9.71,29.979c0,0,1.367,2.269-0.959,2.269c-2.327,0-12.165-8.199-26.165-4.451V67.412
			C43.801,67.412,54.259,74.532,61.215,71.696z"/>
	</g>
</g>
<g id="painting">
</g>
<g id="water_bottle" display="none">
</g>
<g id="tissue_box">
</g>
<g id="book_4">
</g>
<g id="book_3">
</g>
<g id="sketchbook">
</g>
<g id="book_1">
</g>
<g id="coloured_pencil">
</g>
<g id="cup">
</g>
<g id="keyboard">
</g>
<g id="banana_peel">
</g>
<g id="apple">
</g>
<g id="notebook">
</g>
<g id="pen">
</g>
<g id="fork" display="none">
</g>
<g id="crumpled_paper" display="none">
</g>
<g id="mouse__x26__mouse_pad">
</g>
<g id="eraser">
</g>
<g id="cellphone">
</g>
<g id="saucer">
</g>
<g id="coffee_cup" display="none">
</g>
<g id="lamp">
</g>
<g id="colours">
</g>
</svg>
