<?xml version="1.0" encoding="utf-8"?>
<!-- Generator: Adobe Illustrator 16.0.0, SVG Export Plug-In . SVG Version: 6.00 Build 0)  -->
<!DOCTYPE svg PUBLIC "-//W3C//DTD SVG 1.1//EN" "http://www.w3.org/Graphics/SVG/1.1/DTD/svg11.dtd">
<svg version="1.1" xmlns="http://www.w3.org/2000/svg" xmlns:xlink="http://www.w3.org/1999/xlink" x="0px" y="0px"
	 width="43.188px" height="77.115px" viewBox="0 0 43.188 77.115" enable-background="new 0 0 43.188 77.115" xml:space="preserve">
<g id="Layer_1" display="none">
</g>
<g id="bg">
</g>
<g id="header">
</g>
<g id="list">
</g>
<g id="modal_box">
</g>
<g id="modal_box_button">
</g>
<g id="modal_box_text">
</g>
<g id="desk">
</g>
<g id="monitor">
</g>
<g id="cork_board">
</g>
<g id="post-it" display="none">
</g>
<g id="sunrise" display="none">
</g>
<g id="cap">
</g>
<g id="painting">
</g>
<g id="water_bottle" display="none">
</g>
<g id="tissue_box">
</g>
<g id="book_4">
</g>
<g id="book_3">
</g>
<g id="sketchbook">
</g>
<g id="book_1">
</g>
<g id="coloured_pencil">
</g>
<g id="cup">
</g>
<g id="keyboard">
</g>
<g id="banana_peel">
	<g>
		<ellipse fill="#706019" cx="40.009" cy="1.848" rx="3.179" ry="1.848"/>
		<path fill="#706019" d="M8.563,73.262c0,0-10.843,0.764-8.126-4.203c2.721-4.967,11.295-16.805,10.643-27.057
			S9.96,25.132,33.167,11.245L24.593,26.53l-2.701,17.813l-2.518,14.251l-8.482,14.143L8.563,73.262z"/>
		<path fill="#BD9B04" d="M36.83,1.848c0,0-5.247,12.158-12.936,18.467c-7.689,6.309-7.97,18.612-7.409,30.637
			c0,0,2.236,13.411-7.271,19.708c0,0-6.431,5.538,3.915,6.405c10.345,0.869,16.217-9.756,16.637-11.715
			c0.42-1.957,2.236-7.969,1.258-14.398c-0.979-6.434,5.174-14.242,5.174-14.242s7.969-11.764,2.377-20.991
			c0,0-5.515-4.642,2.602-12.154C41.177,3.564,36.67,3.914,36.83,1.848z"/>
		<path fill="none" stroke="#706019" stroke-linecap="round" stroke-miterlimit="10" d="M34.939,15.811c0,0-8.203,11.65-7.923,30.2
			c0.278,18.548-1.305,19.106-12.863,27.774"/>
	</g>
</g>
<g id="apple">
</g>
<g id="notebook">
</g>
<g id="pen">
</g>
<g id="fork" display="none">
</g>
<g id="crumpled_paper" display="none">
</g>
<g id="mouse__x26__mouse_pad">
</g>
<g id="eraser">
</g>
<g id="cellphone">
</g>
<g id="saucer">
</g>
<g id="coffee_cup" display="none">
</g>
<g id="lamp">
</g>
<g id="colours">
</g>
</svg>
