<?xml version="1.0" encoding="utf-8"?>
<!-- Generator: Adobe Illustrator 16.0.0, SVG Export Plug-In . SVG Version: 6.00 Build 0)  -->
<!DOCTYPE svg PUBLIC "-//W3C//DTD SVG 1.1//EN" "http://www.w3.org/Graphics/SVG/1.1/DTD/svg11.dtd">
<svg version="1.1" xmlns="http://www.w3.org/2000/svg" xmlns:xlink="http://www.w3.org/1999/xlink" x="0px" y="0px"
	 width="41.063px" height="55.778px" viewBox="0 0 41.063 55.778" enable-background="new 0 0 41.063 55.778" xml:space="preserve">
<g id="Layer_1" display="none">
</g>
<g id="bg">
</g>
<g id="header">
</g>
<g id="list">
</g>
<g id="modal_box">
</g>
<g id="modal_box_button">
</g>
<g id="modal_box_text">
</g>
<g id="desk">
</g>
<g id="monitor">
</g>
<g id="cork_board">
</g>
<g id="post-it">
</g>
<g id="sunrise">
</g>
<g id="cap">
</g>
<g id="painting">
</g>
<g id="water_bottle">
</g>
<g id="tissue_box">
</g>
<g id="book_4">
</g>
<g id="book_3">
</g>
<g id="sketchbook">
</g>
<g id="book_1">
</g>
<g id="coloured_pencil">
</g>
<g id="cup">
</g>
<g id="keyboard">
</g>
<g id="banana_peel">
</g>
<g id="apple">
</g>
<g id="notebook">
</g>
<g id="pen">
</g>
<g id="fork">
</g>
<g id="crumpled_paper">
</g>
<g id="mouse__x26__mouse_pad">
</g>
<g id="eraser">
</g>
<g id="cellphone">
</g>
<g id="saucer">
</g>
<g id="coffee_cup">
	<g>
		<polygon fill="#474788" points="34.126,52.001 6.949,52.001 3.552,11.001 36.392,11.001 		"/>
		<ellipse fill="#474788" cx="20.531" cy="51.637" rx="13.62" ry="4.141"/>
		<path fill="#706019" d="M41.063,10.462c0,3.747-9.192,6.783-20.53,6.783C9.192,17.246,0,14.209,0,10.462
			c0-1.76,2.028-3.364,5.358-4.568C9.114,4.534,14.52,3.68,20.532,3.68c5.43,0,10.365,0.696,14.036,1.833
			C38.565,6.752,41.063,8.51,41.063,10.462z"/>
		<path fill="#706019" d="M35.683,4.035c0,0.521-0.394,1.02-1.114,1.479C30.897,4.376,25.962,3.68,20.532,3.68
			c-6.013,0-11.418,0.854-15.174,2.214C4.205,5.338,3.552,4.705,3.552,4.035c0-0.07,0.007-0.139,0.021-0.207l0.039-0.007l0.079-0.14
			V3.68C4.485,1.618,11.256,0,19.656,0c8.276,0,15.068,1.572,15.947,3.589l0.017,0.063C35.67,3.779,35.683,3.905,35.683,4.035z"/>
		<path fill="none" d="M34.568,5.514c-0.658,0.421-1.592,0.805-2.743,1.143c-2.946,0.864-7.322,1.411-12.208,1.411
			c-4.726,0-8.976-0.512-11.913-1.327c-0.919-0.254-1.709-0.54-2.346-0.847C9.114,4.534,14.52,3.68,20.532,3.68
			C25.962,3.68,30.897,4.376,34.568,5.514z"/>
		<path fill="none" d="M1.96,9.547C1.972,9.473,1.991,9.4,2.023,9.328L1.96,9.547z"/>
		<polyline fill="none" points="35.612,3.653 35.585,3.589 35.578,3.572 		"/>
		<path fill="#BD9B04" d="M37.995,9.695c0,2.229-8.069,4.035-18.025,4.035c-9.954,0-18.023-1.806-18.023-4.035
			c0-0.05,0.005-0.099,0.014-0.148l0.063-0.22l1.549-5.5C3.559,3.896,3.552,3.964,3.552,4.035c0,1.041,1.571,1.99,4.152,2.707
			c2.938,0.815,7.188,1.327,11.913,1.327c4.886,0,9.262-0.547,12.208-1.411c2.404-0.705,3.857-1.621,3.857-2.622
			c0-0.129-0.023-0.256-0.07-0.382l2.283,5.616l0.047,0.119C37.978,9.49,37.995,9.592,37.995,9.695z"/>
		<line fill="none" x1="1.96" y1="9.547" x2="1.946" y2="9.59"/>
		<polyline fill="none" points="3.572,3.828 3.572,3.821 3.612,3.681 3.612,3.68 		"/>
		<path fill="#19195F" d="M13.993,7.814l0.74-2.813h7.504l0.754,3.066C22.991,8.068,18.249,8.225,13.993,7.814z"/>
		<path fill="#BD9B04" d="M4.518,22.584c0,0,5.545,2.965,15.1,2.965c9.556,0,16.184-3.891,16.184-3.891l-0.58,10.089
			c0,0-6.504,3.993-15.577,3.993S5.397,32.825,5.397,32.825L4.518,22.584z"/>
	</g>
</g>
<g id="lamp">
</g>
<g id="colours">
</g>
</svg>
