<?xml version="1.0" encoding="utf-8"?>
<!-- Generator: Adobe Illustrator 16.0.0, SVG Export Plug-In . SVG Version: 6.00 Build 0)  -->
<!DOCTYPE svg PUBLIC "-//W3C//DTD SVG 1.1//EN" "http://www.w3.org/Graphics/SVG/1.1/DTD/svg11.dtd">
<svg version="1.1" xmlns="http://www.w3.org/2000/svg" xmlns:xlink="http://www.w3.org/1999/xlink" x="0px" y="0px"
	 width="40.156px" height="38.651px" viewBox="0 0 40.156 38.651" enable-background="new 0 0 40.156 38.651" xml:space="preserve">
<g id="Layer_1" display="none">
</g>
<g id="bg">
</g>
<g id="header">
</g>
<g id="list">
</g>
<g id="modal_box">
</g>
<g id="modal_box_button">
</g>
<g id="modal_box_text">
</g>
<g id="desk">
</g>
<g id="monitor">
</g>
<g id="cork_board">
</g>
<g id="post-it">
</g>
<g id="sunrise">
</g>
<g id="cap">
</g>
<g id="painting">
</g>
<g id="water_bottle">
</g>
<g id="tissue_box">
</g>
<g id="book_4">
</g>
<g id="book_3">
</g>
<g id="sketchbook">
</g>
<g id="book_1">
</g>
<g id="coloured_pencil">
</g>
<g id="cup">
</g>
<g id="keyboard">
</g>
<g id="banana_peel">
</g>
<g id="apple">
</g>
<g id="notebook">
</g>
<g id="pen">
</g>
<g id="fork">
</g>
<g id="crumpled_paper">
	<g>
		<g>
			<path fill="#6262BD" d="M36.591,31.954c0,0-5.986,0.951-7.98,1.995c0,0-0.57,2.377-5.701,2.281c0,0-1.426-0.474-5.035,1.806
				c0,0-8.363,3.136-9.218-4.751l-0.571-3.42l-6.842-2.851c0,0-2.28-0.76-0.664-4.181c0,0,2.09-3.134,2.09-4.465
				c0,0-0.854-4.182,0.382-4.846l1.805-1.902c0,0-2.563-3.324-1.805-5.226c0.759-1.9,1.423-3.8,2.468-3.517
				c1.047,0.286,7.129,2.566,7.793,1.522c0.187-0.293,0.483-0.792,0.843-1.354c0,0,3.866,2.334,4.013,5.825
				c0.008,0.185,0.006,0.373-0.01,0.564c-0.283,3.801,2.66,4.657,4.656,4.845c1.995,0.189,4.656-0.188,6.081-1.899
				c1.425-1.711,5.073-3.781,8.823,0.989c0.229,0.545,0.435,1.087,0.584,1.576c0.664,2.186,3.325,4.084,0.76,7.316
				c0,0-2.471,2.186-1.045,4.657C38.017,26.919,41.816,30.149,36.591,31.954z"/>
			<path fill="#19195F" d="M37.718,13.37c-3.75-4.77-7.398-2.701-8.823-0.989c-1.425,1.711-4.086,2.089-6.081,1.899
				c-1.996-0.188-4.939-1.044-4.656-4.845c0.016-0.191,0.018-0.38,0.01-0.564c2.16,1.136,8.169-4.341,8.169-4.341l6.66-0.487
				c1.55,0.681,2.266,0.83,2.266,0.83l0.57,4.657C35.832,9.529,36.917,11.477,37.718,13.37z"/>
			<path fill="#474788" d="M32.996,4.042l-6.319,0.626c0,0-6.35,5.338-8.51,4.202c-0.146-3.491-4.013-5.825-4.013-5.825
				c0.925-1.445,2.259-3.292,3.148-3.019c1.235,0.38,2.564,2.376,4.465,2.092s3.518-2.187,7.603,0.095
				C30.884,3.058,32.085,3.644,32.996,4.042z"/>
			<line fill="none" stroke="#6262BD" stroke-miterlimit="10" x1="36.974" y1="13.429" x2="36.974" y2="13.429"/>
			<path fill="none" stroke="#191970" stroke-miterlimit="10" d="M27.47,27.679c0,0,0.957,5.202-0.329,7.78"/>
			<path fill="none" stroke="#191970" stroke-miterlimit="10" d="M20.079,21.978c0,0-1.637,1.9-3.348,2.185
				c-1.709,0.285-6.937,0.381-8.075,5.321"/>
			<line fill="none" stroke="#191970" stroke-miterlimit="10" x1="4.855" y1="11.62" x2="7.8" y2="10.669"/>
		</g>
		<polygon fill="#474788" points="31.683,5.181 32.996,8.423 32.581,10.436 37.718,13.37 35.832,9.529 35.262,4.873 32.375,3.762 		
			"/>
	</g>
</g>
<g id="mouse__x26__mouse_pad">
</g>
<g id="eraser">
</g>
<g id="cellphone">
</g>
<g id="saucer">
</g>
<g id="coffee_cup">
</g>
<g id="lamp">
</g>
<g id="colours">
</g>
</svg>
