<?xml version="1.0" encoding="utf-8"?>
<!-- Generator: Adobe Illustrator 16.0.0, SVG Export Plug-In . SVG Version: 6.00 Build 0)  -->
<!DOCTYPE svg PUBLIC "-//W3C//DTD SVG 1.1//EN" "http://www.w3.org/Graphics/SVG/1.1/DTD/svg11.dtd">
<svg version="1.1" xmlns="http://www.w3.org/2000/svg" xmlns:xlink="http://www.w3.org/1999/xlink" x="0px" y="0px"
	 width="73.192px" height="13.598px" viewBox="0 0 73.192 13.598" enable-background="new 0 0 73.192 13.598" xml:space="preserve">
<g id="Layer_1" display="none">
</g>
<g id="bg">
</g>
<g id="header">
</g>
<g id="list">
</g>
<g id="modal_box">
</g>
<g id="modal_box_button">
</g>
<g id="modal_box_text">
</g>
<g id="desk">
</g>
<g id="monitor">
</g>
<g id="cork_board">
</g>
<g id="post-it">
</g>
<g id="sunrise">
</g>
<g id="cap">
</g>
<g id="painting">
</g>
<g id="water_bottle">
</g>
<g id="tissue_box">
</g>
<g id="book_4">
</g>
<g id="book_3">
</g>
<g id="sketchbook">
</g>
<g id="book_1">
</g>
<g id="coloured_pencil">
</g>
<g id="cup">
</g>
<g id="keyboard">
</g>
<g id="banana_peel">
</g>
<g id="apple">
</g>
<g id="notebook">
</g>
<g id="pen">
</g>
<g id="fork">
	<path fill="#474788" d="M0,6.712c0.29-2.477,4.231-2.888,4.231-2.888l43.539,1.103c0,0,4.201-3.064,7.348-3.02
		C58.266,1.951,71.47,0,71.47,0l0.209,1.951L53.833,4.993l0.143,1.663l18.368-1.829l0.212,1.953L54.447,9.216l0.101,1.417
		L72.96,9.052l0.232,2.705l-18.033,1.841c0,0-5.077-0.068-7.131-3.957L6.012,11.603c0,0-4.438,0.309-5.525-3.077L0,6.712z"/>
</g>
<g id="crumpled_paper">
</g>
<g id="mouse__x26__mouse_pad">
</g>
<g id="eraser">
</g>
<g id="cellphone">
</g>
<g id="saucer">
</g>
<g id="coffee_cup">
</g>
<g id="lamp">
</g>
<g id="colours">
</g>
</svg>
