<?xml version="1.0" encoding="utf-8"?>
<!-- Generator: Adobe Illustrator 16.0.0, SVG Export Plug-In . SVG Version: 6.00 Build 0)  -->
<!DOCTYPE svg PUBLIC "-//W3C//DTD SVG 1.1//EN" "http://www.w3.org/Graphics/SVG/1.1/DTD/svg11.dtd">
<svg version="1.1" xmlns="http://www.w3.org/2000/svg" xmlns:xlink="http://www.w3.org/1999/xlink" x="0px" y="0px"
	 width="25.279px" height="38.948px" viewBox="0 0 25.279 38.948" enable-background="new 0 0 25.279 38.948" xml:space="preserve">
<g id="Layer_1" display="none">
</g>
<g id="bg">
</g>
<g id="header">
</g>
<g id="list">
</g>
<g id="modal_box">
</g>
<g id="modal_box_button">
</g>
<g id="modal_box_text">
</g>
<g id="desk">
</g>
<g id="monitor">
</g>
<g id="cork_board">
</g>
<g id="post-it" display="none">
</g>
<g id="sunrise" display="none">
</g>
<g id="cap">
</g>
<g id="painting">
</g>
<g id="water_bottle" display="none">
</g>
<g id="tissue_box">
</g>
<g id="book_4">
</g>
<g id="book_3">
</g>
<g id="sketchbook">
</g>
<g id="book_1">
</g>
<g id="coloured_pencil">
</g>
<g id="cup">
</g>
<g id="keyboard">
</g>
<g id="banana_peel">
</g>
<g id="apple">
	<g>
		<path fill="#706019" d="M25.279,30.439c0,0-6.587-1.049-8.019,1.26c-1.429,2.312-3.51,1.028-3.51,1.028s-2.21-1.144-6.786,0
			c-4.578,1.144-6.963-2.997-6.963-2.997l3.912-2.866c3.433-3.146,0-8.059,0-8.059l10.581-5.096l5.319,1.287l0.87,3.413
			C17.395,23.363,25.279,30.439,25.279,30.439z"/>
		<path fill="#BD9B04" d="M25.279,30.439c-1.658,12.729-11.528,7.271-11.528,7.271c-0.748-0.88-1.774,0-1.774,0
			C0.735,42.979,0.002,29.73,0.002,29.73s2.385,4.141,6.963,2.997c4.576-1.144,6.786,0,6.786,0s2.081,1.283,3.51-1.028
			C18.692,29.39,25.279,30.439,25.279,30.439z"/>
		<path fill="#BD9B04" d="M11.35,5.27c0,0-8.391-0.953-10.868,7.438c-2.479,8.389,5.435,5.72,5.435,5.72s1.812-0.572,3.717,0
			c1.908,0.572,4.005,2.288,6.293,0c0,0,1.335-2.67,3.052,0c0,0,7.625,0.763,6.1-5.72C23.553,6.225,18.978,5.212,11.35,5.27z"/>
		<ellipse fill="#706019" cx="11.978" cy="6.157" rx="1.772" ry="0.885"/>
		<path fill="none" stroke="#474788" stroke-miterlimit="10" d="M11.977,6.415c0,0,0.994-6.101,4.14-5.911"/>
	</g>
</g>
<g id="notebook">
</g>
<g id="pen">
</g>
<g id="fork" display="none">
</g>
<g id="crumpled_paper" display="none">
</g>
<g id="mouse__x26__mouse_pad">
</g>
<g id="eraser">
</g>
<g id="cellphone">
</g>
<g id="saucer">
</g>
<g id="coffee_cup" display="none">
</g>
<g id="lamp">
</g>
<g id="colours">
</g>
</svg>
