<?xml version="1.0" encoding="utf-8"?>
<!-- Generator: Adobe Illustrator 16.0.0, SVG Export Plug-In . SVG Version: 6.00 Build 0)  -->
<!DOCTYPE svg PUBLIC "-//W3C//DTD SVG 1.1//EN" "http://www.w3.org/Graphics/SVG/1.1/DTD/svg11.dtd">
<svg version="1.1" xmlns="http://www.w3.org/2000/svg" xmlns:xlink="http://www.w3.org/1999/xlink" x="0px" y="0px"
	 width="62.245px" height="35.108px" viewBox="0 0 62.245 35.108" enable-background="new 0 0 62.245 35.108" xml:space="preserve">
<g id="Layer_1" display="none">
</g>
<g id="bg">
</g>
<g id="header">
</g>
<g id="list">
</g>
<g id="modal_box">
</g>
<g id="modal_box_button">
</g>
<g id="modal_box_text">
</g>
<g id="desk">
</g>
<g id="monitor">
</g>
<g id="cork_board">
</g>
<g id="post-it" display="none">
</g>
<g id="sunrise" display="none">
</g>
<g id="cap">
</g>
<g id="painting">
</g>
<g id="water_bottle" display="none">
</g>
<g id="tissue_box">
</g>
<g id="book_4">
</g>
<g id="book_3">
</g>
<g id="sketchbook">
</g>
<g id="book_1">
</g>
<g id="coloured_pencil">
</g>
<g id="cup">
</g>
<g id="keyboard">
</g>
<g id="banana_peel">
</g>
<g id="apple">
</g>
<g id="notebook">
</g>
<g id="pen">
</g>
<g id="fork" display="none">
</g>
<g id="crumpled_paper" display="none">
</g>
<g id="mouse__x26__mouse_pad">
</g>
<g id="eraser">
</g>
<g id="cellphone">
</g>
<g id="saucer">
	<g>
		<path fill="#474788" d="M62.245,15.847c0,2.649-1.276,5.15-3.54,7.346c-5.202,5.053-15.603,8.5-27.585,8.5
			c-11.981,0-22.383-3.449-27.584-8.502C1.276,20.993,0,18.496,0,15.847c0-0.189,0.007-0.38,0.02-0.568
			c0.149,2.188,1.174,4.262,2.897,6.137c4.961,5.399,15.724,9.139,28.203,9.139s23.243-3.738,28.206-9.136
			c1.723-1.876,2.748-3.95,2.899-6.14C62.238,15.467,62.245,15.657,62.245,15.847z"/>
		<ellipse fill="none" stroke="#6262BD" stroke-miterlimit="10" cx="30.908" cy="19.357" rx="11.601" ry="4.979"/>
		<path fill="#6262BD" d="M31.12,0C14.306,0,0.605,6.79,0.02,15.278c0.149,2.188,1.174,4.262,2.897,6.137
			c4.961,5.399,15.724,9.139,28.203,9.139s23.243-3.738,28.206-9.136c1.723-1.876,2.748-3.95,2.899-6.14
			C61.638,6.79,47.938,0,31.12,0z M30.908,24.337c-6.406,0-11.602-2.229-11.602-4.979c0-2.752,5.195-4.981,11.602-4.981
			c6.405,0,11.601,2.229,11.601,4.981C42.509,22.108,37.313,24.337,30.908,24.337z"/>
		<ellipse fill="none" stroke="#6262BD" stroke-miterlimit="10" cx="30.908" cy="19.357" rx="11.601" ry="4.979"/>
		<path fill="#474788" d="M58.705,23.192c-3.142,6.852-14.3,11.916-27.585,11.916c-13.284,0-24.443-5.066-27.584-11.918
			c5.201,5.053,15.603,8.502,27.584,8.502C43.103,31.692,53.503,28.245,58.705,23.192z"/>
		<ellipse fill="none" stroke="#6262BD" stroke-miterlimit="10" cx="30.908" cy="19.357" rx="11.601" ry="4.979"/>
		<ellipse fill="#474788" cx="30.908" cy="19.357" rx="11.601" ry="4.979"/>
	</g>
</g>
<g id="coffee_cup" display="none">
</g>
<g id="lamp">
</g>
<g id="colours">
</g>
</svg>
