<?xml version="1.0" encoding="utf-8"?>
<!-- Generator: Adobe Illustrator 16.0.0, SVG Export Plug-In . SVG Version: 6.00 Build 0)  -->
<!DOCTYPE svg PUBLIC "-//W3C//DTD SVG 1.1//EN" "http://www.w3.org/Graphics/SVG/1.1/DTD/svg11.dtd">
<svg version="1.1" xmlns="http://www.w3.org/2000/svg" xmlns:xlink="http://www.w3.org/1999/xlink" x="0px" y="0px"
	 width="55.611px" height="35.766px" viewBox="0 0 55.611 35.766" enable-background="new 0 0 55.611 35.766" xml:space="preserve">
<g id="Layer_1" display="none">
</g>
<g id="bg">
</g>
<g id="header">
</g>
<g id="list">
</g>
<g id="modal_box">
</g>
<g id="modal_box_button">
</g>
<g id="modal_box_text">
</g>
<g id="desk">
</g>
<g id="monitor">
</g>
<g id="cork_board">
</g>
<g id="post-it">
</g>
<g id="sunrise">
	<g>
		
			<rect x="0.352" y="0.563" transform="matrix(0.9998 -0.0207 0.0207 0.9998 -0.3635 0.5782)" fill="#6262BD" width="54.907" height="34.639"/>
		<path fill="#474788" d="M21.939,15.763c-0.009,0.011,0.403,0.014,0.396,0.025c-0.05,0.089-0.072,0.182-0.118,0.275
			c-0.25,0.525-0.794,1.122-0.917,1.718c-0.038,0.207-0.064,0.418-0.09,0.632c-0.003,0.025-0.003,0.055-0.006,0.081
			c-0.006,0-0.006,0.257-0.004,0.279c-0.004,0.019-0.004,0.275-0.007,0.275h-0.004c-0.513,0-1.129-0.193-1.977-0.176
			c-0.096,0.001-0.231-0.017-0.32-0.011c-1.351,0.05-2.049-0.074-2.744,0.114c-0.761,0.2-1.501,0.336-2.983,0.367
			c-1.482,0.031-2.25-0.152-3.016-0.324c-0.5-0.111-1.009-0.237-1.766-0.299c-0.348-0.026-0.648-0.047-1.385-0.036L6.755,6.956
			L21.939,15.763z"/>
		<path fill="#474788" d="M26.169,12.488c-1.781,0.541-3.223,1.799-4.101,3.394L6.755,6.954L6.747,6.523l15.087-0.311L26.169,12.488
			z"/>
		<path fill="#474788" d="M33.501,5.97l-3.968,6.337c-0.47-0.089-0.958-0.177-1.456-0.167c-0.663,0.014-1.304,0.188-1.908,0.371
			l-4.335-6.299L33.501,5.97z"/>
		<path fill="#474788" d="M48.747,5.656l0.003,0.183l-14.718,9.441c-1.035-1.574-2.632-2.618-4.545-2.973l4.014-6.338L48.747,5.656z
			"/>
		<path fill="#474788" d="M48.75,5.839l0.263,12.707c-1.126,0.113-1.989-0.135-2.723-0.301c-0.755-0.169-1.517-0.345-3.042-0.313
			c-1.529,0.032-2.279,0.239-3.027,0.438c-0.758,0.204-1.462,0.391-2.947,0.422c-0.884,0.019-1.494-0.032-2.012-0.113
			c-0.081-1.251-0.581-2.41-1.232-3.399L48.75,5.839z"/>
		<path fill="#0D0D3D" d="M49.123,23.886l0.118,5.717l-42,0.867l-0.134-6.479c2.211-0.035,3.149,0.133,4.146,0.292
			c1.038,0.169,2.237,0.338,4.345,0.295c2.108-0.043,3.196-0.261,4.227-0.472c1.017-0.205,2.081-0.421,4.156-0.464
			c2.074-0.043,3.138,0.129,4.162,0.292c1.039,0.169,2.118,0.342,4.227,0.298c2.106-0.043,3.176-0.26,4.207-0.472
			c1.017-0.204,2.071-0.42,4.145-0.463c2.078-0.043,3.052,0.131,4.077,0.293C45.806,23.756,47.282,23.912,49.123,23.886z"/>
		<path fill="#191970" d="M49.012,18.497l0.114,5.48c-1.844,0.024-3.271-0.147-4.266-0.329c-1.039-0.19-2.084-0.384-4.192-0.34
			c-2.106,0.043-3.147,0.28-4.184,0.513c-1.012,0.227-2.052,0.459-4.127,0.502c-2.073,0.042-3.13-0.146-4.155-0.331
			c-1.039-0.19-2.117-0.383-4.224-0.339c-2.107,0.043-3.182,0.28-4.212,0.512c-1.017,0.229-2.087,0.461-4.162,0.504
			c-2.073,0.043-3.265-0.143-4.288-0.329c-1.011-0.185-1.998-0.371-4.209-0.338l-0.113-5.476c1.843-0.025,2.229,0.157,2.97,0.348
			c0.756,0.195,1.669,0.379,3.199,0.347c1.523-0.032,2.319-0.28,3.068-0.506c0.758-0.235,1.485-0.323,2.971-0.354
			c0.837-0.017,1.976,0.117,1.976,0.117c0.763,0.211,0.681,0.154,1.011,0.239c0.752,0.194,1.533,0.391,3.06,0.359
			c1.529-0.032,2.3-0.305,3.043-0.531c0.758-0.231,1.477-0.469,2.957-0.5c1.485-0.03,2.21,0.147,2.978,0.346
			c0.299,0.079,0.607,0.151,0.967,0.216c0.025,0.003,0.051,0.009,0.08,0.013c0.523,0.09,1.151,0.143,2.017,0.125
			c1.529-0.031,2.302-0.264,3.048-0.491c0.759-0.229,1.484-0.447,2.966-0.478c1.484-0.03,2.13,0.159,2.896,0.356
			C46.923,18.322,47.906,18.507,49.012,18.497z"/>
		<path fill="#0D0D3D" d="M44.856,23.432c0.994,0.156,2.42,0.303,4.264,0.277l0.007,0.368c-1.842,0.027-3.315-0.123-4.325-0.283
			c-1.023-0.156-2.045-0.323-4.121-0.279c-2.074,0.042-3.104,0.252-4.122,0.45c-1.03,0.206-2.088,0.416-4.194,0.459
			c-2.109,0.043-3.178-0.122-4.218-0.285c-1.023-0.156-2.079-0.322-4.153-0.279c-2.073,0.042-3.126,0.252-4.144,0.451
			c-1.03,0.205-2.094,0.416-4.202,0.458c-2.107,0.043-3.354-0.119-4.391-0.281c-0.996-0.153-1.934-0.314-4.145-0.28l-0.008-0.368
			c2.211-0.034,3.197,0.126,4.208,0.285c1.023,0.16,2.168,0.32,4.243,0.278c2.072-0.043,3.168-0.25,4.184-0.452
			c1.033-0.206,2.119-0.416,4.227-0.459c2.107-0.044,3.193,0.122,4.232,0.285c1.024,0.159,2.088,0.321,4.162,0.279
			c2.075-0.043,3.129-0.249,4.143-0.451c1.035-0.206,2.056-0.415,4.162-0.458C42.773,23.102,43.817,23.269,44.856,23.432z"/>
		<path fill="#BD9B04" d="M35.267,18.68c-0.192-0.026-0.372-0.059-0.547-0.1c-0.06-0.013-0.118-0.023-0.174-0.037
			c-0.007,0-0.016-0.003-0.021-0.007c-0.07-0.013-0.142-0.026-0.212-0.043c-0.755-0.169-1.533-0.344-3.061-0.313
			c-1.53,0.032-2.3,0.239-3.047,0.439c-0.761,0.205-1.478,0.392-2.963,0.423c-1.481,0.031-2.207-0.128-2.974-0.3
			c-0.159-0.037-0.318-0.071-0.488-0.104c-0.082-0.016-0.166-0.033-0.255-0.049c-0.104-0.021-0.212-0.041-0.327-0.053
			c-0.003-0.003-0.007-0.003-0.01-0.003c0.003-0.044,0.009-0.088,0.016-0.129c0.086-0.828,0.316-1.613,0.667-2.332
			c0.046-0.093,0.092-0.186,0.143-0.276c0.006-0.011,0.009-0.022,0.017-0.033c0.878-1.595,2.356-2.824,4.137-3.366
			c0.604-0.183,1.246-0.288,1.909-0.302c0.498-0.01,0.985,0.032,1.456,0.122c1.913,0.354,3.558,1.489,4.593,3.063
			C34.776,16.269,35.187,17.428,35.267,18.68z"/>
	</g>
</g>
<g id="cap">
</g>
<g id="painting">
</g>
<g id="water_bottle">
</g>
<g id="tissue_box">
</g>
<g id="book_4">
</g>
<g id="book_3">
</g>
<g id="sketchbook">
</g>
<g id="book_1">
</g>
<g id="coloured_pencil">
</g>
<g id="cup">
</g>
<g id="keyboard">
</g>
<g id="banana_peel">
</g>
<g id="apple">
</g>
<g id="notebook">
</g>
<g id="pen">
</g>
<g id="fork">
</g>
<g id="crumpled_paper">
</g>
<g id="mouse__x26__mouse_pad">
</g>
<g id="eraser">
</g>
<g id="cellphone">
</g>
<g id="saucer">
</g>
<g id="coffee_cup">
</g>
<g id="lamp">
</g>
<g id="colours">
</g>
</svg>
