<?xml version="1.0" encoding="utf-8"?>
<!-- Generator: Adobe Illustrator 16.0.0, SVG Export Plug-In . SVG Version: 6.00 Build 0)  -->
<!DOCTYPE svg PUBLIC "-//W3C//DTD SVG 1.1//EN" "http://www.w3.org/Graphics/SVG/1.1/DTD/svg11.dtd">
<svg version="1.1" xmlns="http://www.w3.org/2000/svg" xmlns:xlink="http://www.w3.org/1999/xlink" x="0px" y="0px"
	 width="31.617px" height="68.85px" viewBox="0 0 31.617 68.85" enable-background="new 0 0 31.617 68.85" xml:space="preserve">
<g id="Layer_1" display="none">
</g>
<g id="bg">
</g>
<g id="header">
</g>
<g id="list">
</g>
<g id="modal_box">
</g>
<g id="modal_box_button">
</g>
<g id="modal_box_text">
</g>
<g id="desk">
</g>
<g id="monitor">
</g>
<g id="cork_board">
</g>
<g id="post-it" display="none">
</g>
<g id="sunrise" display="none">
</g>
<g id="cap">
</g>
<g id="painting">
</g>
<g id="water_bottle">
	<g>
		<path fill="#474788" d="M21.309,1.44v0.782c0,0.5-1.063,0.924-2.38,1.18c-0.852,0.167-1.731,0.261-2.801,0.261
			c-1.066,0-2.227-0.095-3.079-0.261c-1.266-0.245-1.74-0.645-2.74-1.122V1.382C11.309,0.586,13.136,0,15.788,0
			C18.504,0,20.309,0.615,21.309,1.44z"/>
		<line fill="none" stroke="#6262BD" stroke-miterlimit="10" x1="21.789" y1="2.17" x2="21.789" y2="2.17"/>
		<line fill="none" stroke="#6262BD" stroke-miterlimit="10" x1="21.789" y1="1.396" x2="21.789" y2="1.396"/>
		<path fill="#6262BD" d="M21.309,2.223v3.142c-1,0.825-2.805,1.44-5.521,1.44c-2.652,0-4.479-0.586-5.479-1.382V2.281
			c1,0.477,1.535,0.877,2.801,1.122c0.852,0.167,1.961,0.261,3.027,0.261c1.07,0,1.885-0.095,2.736-0.261
			C20.191,3.146,21.309,2.722,21.309,2.223z"/>
		<line fill="none" stroke="#6262BD" stroke-miterlimit="10" x1="10.762" y1="2.141" x2="10.762" y2="2.141"/>
		<line fill="none" stroke="#6262BD" stroke-miterlimit="10" x1="10.751" y1="1.396" x2="10.751" y2="1.396"/>
		<path fill="#6262BD" d="M30.309,20.206v11.47c0,1.006-4.111,5.174-11.723,5.174H13.94c-8.159,0-12.632-4.587-12.632-5.234V20.167
			c0,0.65,4.473,5.683,12.632,5.683h4.646C26.197,25.85,30.309,21.224,30.309,20.206z"/>
		<path fill="#474788" d="M13.94,25.85c-8.159,0-12.632-5.033-12.632-5.683v-0.513c0-6.283,8.917-14.232,8.917-14.232
			c1.285,0.713,3.261,1.283,5.912,1.283c2.716,0,4.083-0.805,5.124-1.341c0,0,9.047,8.006,9.047,14.29v0.552
			c0,1.018-4.111,5.644-11.723,5.644H13.94z"/>
		<path fill="#474788" d="M30.309,47.303v1.735c0,0,1.309,0.784,1.309,2.421c0,1.636-1.309,2.128-1.309,2.128v10.11
			c0,0,1.229,5.152-12.645,5.152h-2.617c-13.875,0-13.738-5.152-13.738-5.152v-10.11c0,0-1.309-0.492-1.309-2.128
			c0-1.637,1.309-2.421,1.309-2.421v-1.735c0,0-1.309-0.49-1.309-2.126c0-1.637,1.309-2.423,1.309-2.423v-1.766
			c0,0-1.309-0.458-1.309-2.094c0-1.636,1.309-2.422,1.309-2.422v-4.857c0,0.647,4.473,5.234,12.632,5.234h4.646
			c7.611,0,11.723-4.167,11.723-5.174v4.797c0,0,1.309,0.786,1.309,2.422c0,1.636-1.309,2.094-1.309,2.094v1.766
			c0,0,1.309,0.786,1.309,2.423C31.617,46.813,30.309,47.303,30.309,47.303z"/>
		<path fill="none" stroke="#6262BD" stroke-linecap="round" stroke-miterlimit="10" d="M1.804,41.396
			c0,0,13.255,6.668,27.778,0.344"/>
		<path fill="none" stroke="#6262BD" stroke-linecap="round" stroke-miterlimit="10" d="M1.358,36.931c0,0,14.427,7.494,28.95,0.283
			"/>
		<path fill="none" stroke="#6262BD" stroke-linecap="round" stroke-miterlimit="10" d="M1.804,47.664
			c0,0,13.255,6.798,27.778,0.475"/>
		<path fill="none" stroke="#6262BD" stroke-linecap="round" stroke-miterlimit="10" d="M1.358,43.322c0,0,14.427,7.493,28.95,0.283
			"/>
		<path fill="none" stroke="#6262BD" stroke-linecap="round" stroke-miterlimit="10" d="M1.973,54.053
			c0,0,13.086,6.599,27.609,0.275"/>
		<path fill="none" stroke="#6262BD" stroke-linecap="round" stroke-miterlimit="10" d="M1.358,49.519c0,0,14.427,7.489,28.95,0.279
			"/>
	</g>
</g>
<g id="tissue_box">
</g>
<g id="book_4">
</g>
<g id="book_3">
</g>
<g id="sketchbook">
</g>
<g id="book_1">
</g>
<g id="coloured_pencil">
</g>
<g id="cup">
</g>
<g id="keyboard">
</g>
<g id="banana_peel">
</g>
<g id="apple">
</g>
<g id="notebook">
</g>
<g id="pen">
</g>
<g id="fork" display="none">
</g>
<g id="crumpled_paper" display="none">
</g>
<g id="mouse__x26__mouse_pad">
</g>
<g id="eraser">
</g>
<g id="cellphone">
</g>
<g id="saucer">
</g>
<g id="coffee_cup" display="none">
</g>
<g id="lamp">
</g>
<g id="colours">
</g>
</svg>
